<mxfile host="app.diagrams.net" modified="2020-12-17T10:06:20.375Z" agent="5.0 (Windows NT 10.0; Win64; x64) AppleWebKit/537.36 (KHTML, like Gecko) Chrome/87.0.4280.88 Safari/537.36" etag="iAe67cj7fy7TDBKeWoYg" version="14.0.1" type="github">
  <diagram id="C5RBs43oDa-KdzZeNtuy" name="Page-1">
    <mxGraphModel dx="1422" dy="762" grid="1" gridSize="10" guides="1" tooltips="1" connect="1" arrows="1" fold="1" page="1" pageScale="1" pageWidth="827" pageHeight="1169" math="0" shadow="0">
      <root>
        <mxCell id="WIyWlLk6GJQsqaUBKTNV-0" />
        <mxCell id="WIyWlLk6GJQsqaUBKTNV-1" parent="WIyWlLk6GJQsqaUBKTNV-0" />
        <mxCell id="sn5ChhuNoEnq9l8OuKxL-0" style="edgeStyle=orthogonalEdgeStyle;rounded=0;orthogonalLoop=1;jettySize=auto;html=1;exitX=0.5;exitY=1;exitDx=0;exitDy=0;entryX=0.5;entryY=0;entryDx=0;entryDy=0;" edge="1" parent="WIyWlLk6GJQsqaUBKTNV-1" source="sn5ChhuNoEnq9l8OuKxL-1" target="sn5ChhuNoEnq9l8OuKxL-4">
          <mxGeometry relative="1" as="geometry" />
        </mxCell>
        <mxCell id="sn5ChhuNoEnq9l8OuKxL-1" value="Nucleo Powerd On" style="rounded=1;whiteSpace=wrap;html=1;fontSize=12;glass=0;strokeWidth=1;shadow=0;" vertex="1" parent="WIyWlLk6GJQsqaUBKTNV-1">
          <mxGeometry x="354" y="30" width="120" height="40" as="geometry" />
        </mxCell>
        <mxCell id="sn5ChhuNoEnq9l8OuKxL-2" style="edgeStyle=orthogonalEdgeStyle;rounded=0;orthogonalLoop=1;jettySize=auto;html=1;exitX=0.5;exitY=1;exitDx=0;exitDy=0;entryX=0.5;entryY=0;entryDx=0;entryDy=0;" edge="1" parent="WIyWlLk6GJQsqaUBKTNV-1" source="sn5ChhuNoEnq9l8OuKxL-4" target="sn5ChhuNoEnq9l8OuKxL-10">
          <mxGeometry relative="1" as="geometry" />
        </mxCell>
        <mxCell id="sn5ChhuNoEnq9l8OuKxL-3" style="edgeStyle=orthogonalEdgeStyle;rounded=0;orthogonalLoop=1;jettySize=auto;html=1;exitX=1;exitY=0.5;exitDx=0;exitDy=0;entryX=0;entryY=0.5;entryDx=0;entryDy=0;" edge="1" parent="WIyWlLk6GJQsqaUBKTNV-1" source="sn5ChhuNoEnq9l8OuKxL-4" target="sn5ChhuNoEnq9l8OuKxL-23">
          <mxGeometry relative="1" as="geometry" />
        </mxCell>
        <mxCell id="sn5ChhuNoEnq9l8OuKxL-4" value="Configure Nucleo" style="rounded=1;whiteSpace=wrap;html=1;fontSize=12;glass=0;strokeWidth=1;shadow=0;" vertex="1" parent="WIyWlLk6GJQsqaUBKTNV-1">
          <mxGeometry x="354" y="110" width="120" height="40" as="geometry" />
        </mxCell>
        <mxCell id="sn5ChhuNoEnq9l8OuKxL-5" style="edgeStyle=orthogonalEdgeStyle;rounded=0;orthogonalLoop=1;jettySize=auto;html=1;exitX=0;exitY=0.5;exitDx=0;exitDy=0;entryX=0.5;entryY=0;entryDx=0;entryDy=0;" edge="1" parent="WIyWlLk6GJQsqaUBKTNV-1" source="sn5ChhuNoEnq9l8OuKxL-10" target="sn5ChhuNoEnq9l8OuKxL-12">
          <mxGeometry relative="1" as="geometry" />
        </mxCell>
        <mxCell id="sn5ChhuNoEnq9l8OuKxL-6" style="edgeStyle=orthogonalEdgeStyle;rounded=0;orthogonalLoop=1;jettySize=auto;html=1;exitX=0;exitY=0.75;exitDx=0;exitDy=0;entryX=0.5;entryY=0;entryDx=0;entryDy=0;" edge="1" parent="WIyWlLk6GJQsqaUBKTNV-1" source="sn5ChhuNoEnq9l8OuKxL-10" target="sn5ChhuNoEnq9l8OuKxL-13">
          <mxGeometry relative="1" as="geometry" />
        </mxCell>
        <mxCell id="sn5ChhuNoEnq9l8OuKxL-7" style="edgeStyle=orthogonalEdgeStyle;rounded=0;orthogonalLoop=1;jettySize=auto;html=1;exitX=0.5;exitY=1;exitDx=0;exitDy=0;entryX=0.5;entryY=0;entryDx=0;entryDy=0;" edge="1" parent="WIyWlLk6GJQsqaUBKTNV-1" source="sn5ChhuNoEnq9l8OuKxL-10" target="sn5ChhuNoEnq9l8OuKxL-14">
          <mxGeometry relative="1" as="geometry" />
        </mxCell>
        <mxCell id="sn5ChhuNoEnq9l8OuKxL-8" style="edgeStyle=orthogonalEdgeStyle;rounded=0;orthogonalLoop=1;jettySize=auto;html=1;exitX=1;exitY=0.5;exitDx=0;exitDy=0;entryX=0.5;entryY=0;entryDx=0;entryDy=0;" edge="1" parent="WIyWlLk6GJQsqaUBKTNV-1" source="sn5ChhuNoEnq9l8OuKxL-10" target="sn5ChhuNoEnq9l8OuKxL-16">
          <mxGeometry relative="1" as="geometry" />
        </mxCell>
        <mxCell id="sn5ChhuNoEnq9l8OuKxL-9" style="edgeStyle=orthogonalEdgeStyle;rounded=0;orthogonalLoop=1;jettySize=auto;html=1;exitX=1;exitY=0.75;exitDx=0;exitDy=0;" edge="1" parent="WIyWlLk6GJQsqaUBKTNV-1" source="sn5ChhuNoEnq9l8OuKxL-10" target="sn5ChhuNoEnq9l8OuKxL-15">
          <mxGeometry relative="1" as="geometry" />
        </mxCell>
        <mxCell id="sn5ChhuNoEnq9l8OuKxL-10" value="Start RTOS" style="rounded=1;whiteSpace=wrap;html=1;fontSize=12;glass=0;strokeWidth=1;shadow=0;" vertex="1" parent="WIyWlLk6GJQsqaUBKTNV-1">
          <mxGeometry x="354" y="190" width="120" height="40" as="geometry" />
        </mxCell>
        <mxCell id="sn5ChhuNoEnq9l8OuKxL-11" style="edgeStyle=orthogonalEdgeStyle;rounded=0;orthogonalLoop=1;jettySize=auto;html=1;exitX=0.5;exitY=1;exitDx=0;exitDy=0;entryX=0.5;entryY=0;entryDx=0;entryDy=0;" edge="1" parent="WIyWlLk6GJQsqaUBKTNV-1" source="sn5ChhuNoEnq9l8OuKxL-12" target="sn5ChhuNoEnq9l8OuKxL-19">
          <mxGeometry relative="1" as="geometry" />
        </mxCell>
        <mxCell id="sn5ChhuNoEnq9l8OuKxL-12" value="Read Pot" style="rounded=1;whiteSpace=wrap;html=1;fontSize=12;glass=0;strokeWidth=1;shadow=0;" vertex="1" parent="WIyWlLk6GJQsqaUBKTNV-1">
          <mxGeometry x="34" y="270" width="120" height="40" as="geometry" />
        </mxCell>
        <mxCell id="sn5ChhuNoEnq9l8OuKxL-13" value="Update LCD" style="rounded=1;whiteSpace=wrap;html=1;fontSize=12;glass=0;strokeWidth=1;shadow=0;" vertex="1" parent="WIyWlLk6GJQsqaUBKTNV-1">
          <mxGeometry x="194" y="270" width="120" height="40" as="geometry" />
        </mxCell>
        <mxCell id="sn5ChhuNoEnq9l8OuKxL-14" value="Send Data" style="rounded=1;whiteSpace=wrap;html=1;fontSize=12;glass=0;strokeWidth=1;shadow=0;" vertex="1" parent="WIyWlLk6GJQsqaUBKTNV-1">
          <mxGeometry x="354" y="270" width="120" height="40" as="geometry" />
        </mxCell>
        <mxCell id="sn5ChhuNoEnq9l8OuKxL-15" value="Task 4" style="rounded=1;whiteSpace=wrap;html=1;fontSize=12;glass=0;strokeWidth=1;shadow=0;" vertex="1" parent="WIyWlLk6GJQsqaUBKTNV-1">
          <mxGeometry x="514" y="270" width="120" height="40" as="geometry" />
        </mxCell>
        <mxCell id="sn5ChhuNoEnq9l8OuKxL-16" value="Task 5" style="rounded=1;whiteSpace=wrap;html=1;fontSize=12;glass=0;strokeWidth=1;shadow=0;" vertex="1" parent="WIyWlLk6GJQsqaUBKTNV-1">
          <mxGeometry x="674" y="270" width="120" height="40" as="geometry" />
        </mxCell>
        <mxCell id="sn5ChhuNoEnq9l8OuKxL-17" style="edgeStyle=orthogonalEdgeStyle;rounded=0;orthogonalLoop=1;jettySize=auto;html=1;exitX=1;exitY=0.5;exitDx=0;exitDy=0;entryX=1;entryY=0.5;entryDx=0;entryDy=0;" edge="1" parent="WIyWlLk6GJQsqaUBKTNV-1" source="sn5ChhuNoEnq9l8OuKxL-19" target="sn5ChhuNoEnq9l8OuKxL-12">
          <mxGeometry relative="1" as="geometry" />
        </mxCell>
        <mxCell id="sn5ChhuNoEnq9l8OuKxL-18" value="Delay" style="edgeLabel;html=1;align=center;verticalAlign=middle;resizable=0;points=[];" vertex="1" connectable="0" parent="sn5ChhuNoEnq9l8OuKxL-17">
          <mxGeometry x="-0.1306" y="2" relative="1" as="geometry">
            <mxPoint as="offset" />
          </mxGeometry>
        </mxCell>
        <mxCell id="sn5ChhuNoEnq9l8OuKxL-19" value="Store Data In Buffer" style="rounded=1;whiteSpace=wrap;html=1;fontSize=12;glass=0;strokeWidth=1;shadow=0;" vertex="1" parent="WIyWlLk6GJQsqaUBKTNV-1">
          <mxGeometry x="34" y="350" width="120" height="40" as="geometry" />
        </mxCell>
        <mxCell id="sn5ChhuNoEnq9l8OuKxL-20" style="edgeStyle=orthogonalEdgeStyle;rounded=0;orthogonalLoop=1;jettySize=auto;html=1;exitX=0.5;exitY=1;exitDx=0;exitDy=0;entryX=1;entryY=0.5;entryDx=0;entryDy=0;" edge="1" parent="WIyWlLk6GJQsqaUBKTNV-1" source="sn5ChhuNoEnq9l8OuKxL-13" target="sn5ChhuNoEnq9l8OuKxL-13">
          <mxGeometry relative="1" as="geometry" />
        </mxCell>
        <mxCell id="sn5ChhuNoEnq9l8OuKxL-21" value="Delay" style="edgeLabel;html=1;align=center;verticalAlign=middle;resizable=0;points=[];" vertex="1" connectable="0" parent="sn5ChhuNoEnq9l8OuKxL-20">
          <mxGeometry y="-1" relative="1" as="geometry">
            <mxPoint as="offset" />
          </mxGeometry>
        </mxCell>
        <mxCell id="sn5ChhuNoEnq9l8OuKxL-22" style="edgeStyle=orthogonalEdgeStyle;rounded=0;orthogonalLoop=1;jettySize=auto;html=1;exitX=0.5;exitY=1;exitDx=0;exitDy=0;entryX=1;entryY=0.5;entryDx=0;entryDy=0;" edge="1" parent="WIyWlLk6GJQsqaUBKTNV-1" source="sn5ChhuNoEnq9l8OuKxL-14" target="sn5ChhuNoEnq9l8OuKxL-14">
          <mxGeometry relative="1" as="geometry" />
        </mxCell>
        <mxCell id="sn5ChhuNoEnq9l8OuKxL-23" value="Start Interupts" style="rounded=1;whiteSpace=wrap;html=1;fontSize=12;glass=0;strokeWidth=1;shadow=0;" vertex="1" parent="WIyWlLk6GJQsqaUBKTNV-1">
          <mxGeometry x="514" y="110" width="120" height="40" as="geometry" />
        </mxCell>
        <mxCell id="sn5ChhuNoEnq9l8OuKxL-24" value="" style="rounded=0;whiteSpace=wrap;html=1;fillColor=none;dashed=1;" vertex="1" parent="WIyWlLk6GJQsqaUBKTNV-1">
          <mxGeometry x="24" y="170" width="780" height="250" as="geometry" />
        </mxCell>
        <mxCell id="sn5ChhuNoEnq9l8OuKxL-25" value="RTOS" style="text;html=1;strokeColor=none;fillColor=none;align=center;verticalAlign=middle;whiteSpace=wrap;rounded=0;dashed=1;" vertex="1" parent="WIyWlLk6GJQsqaUBKTNV-1">
          <mxGeometry x="24" y="170" width="40" height="20" as="geometry" />
        </mxCell>
        <mxCell id="sn5ChhuNoEnq9l8OuKxL-26" value="" style="rounded=0;whiteSpace=wrap;html=1;fillColor=none;dashed=1;editable=0;pointerEvents=0;" vertex="1" parent="WIyWlLk6GJQsqaUBKTNV-1">
          <mxGeometry x="24" y="430" width="780" height="270" as="geometry" />
        </mxCell>
        <mxCell id="sn5ChhuNoEnq9l8OuKxL-27" style="edgeStyle=orthogonalEdgeStyle;rounded=0;orthogonalLoop=1;jettySize=auto;html=1;exitX=0.5;exitY=1;exitDx=0;exitDy=0;entryX=0.5;entryY=0;entryDx=0;entryDy=0;" edge="1" parent="WIyWlLk6GJQsqaUBKTNV-1" source="sn5ChhuNoEnq9l8OuKxL-28" target="sn5ChhuNoEnq9l8OuKxL-34">
          <mxGeometry relative="1" as="geometry" />
        </mxCell>
        <mxCell id="sn5ChhuNoEnq9l8OuKxL-28" value="Up" style="rounded=1;whiteSpace=wrap;html=1;fontSize=12;glass=0;strokeWidth=1;shadow=0;" vertex="1" parent="WIyWlLk6GJQsqaUBKTNV-1">
          <mxGeometry x="44" y="485" width="80" height="30" as="geometry" />
        </mxCell>
        <mxCell id="sn5ChhuNoEnq9l8OuKxL-29" value="Button Interupts" style="text;html=1;strokeColor=none;fillColor=none;align=center;verticalAlign=middle;whiteSpace=wrap;rounded=0;dashed=1;" vertex="1" parent="WIyWlLk6GJQsqaUBKTNV-1">
          <mxGeometry x="24" y="430" width="90" height="20" as="geometry" />
        </mxCell>
        <mxCell id="sn5ChhuNoEnq9l8OuKxL-30" style="edgeStyle=orthogonalEdgeStyle;rounded=0;orthogonalLoop=1;jettySize=auto;html=1;exitX=0.5;exitY=1;exitDx=0;exitDy=0;" edge="1" parent="WIyWlLk6GJQsqaUBKTNV-1" source="sn5ChhuNoEnq9l8OuKxL-31" target="sn5ChhuNoEnq9l8OuKxL-35">
          <mxGeometry relative="1" as="geometry" />
        </mxCell>
        <mxCell id="sn5ChhuNoEnq9l8OuKxL-31" value="Down" style="rounded=1;whiteSpace=wrap;html=1;fontSize=12;glass=0;strokeWidth=1;shadow=0;" vertex="1" parent="WIyWlLk6GJQsqaUBKTNV-1">
          <mxGeometry x="164" y="485" width="80" height="30" as="geometry" />
        </mxCell>
        <mxCell id="sn5ChhuNoEnq9l8OuKxL-32" style="edgeStyle=orthogonalEdgeStyle;rounded=0;orthogonalLoop=1;jettySize=auto;html=1;exitX=0.5;exitY=1;exitDx=0;exitDy=0;entryX=0.5;entryY=0;entryDx=0;entryDy=0;" edge="1" parent="WIyWlLk6GJQsqaUBKTNV-1" source="sn5ChhuNoEnq9l8OuKxL-33" target="sn5ChhuNoEnq9l8OuKxL-36">
          <mxGeometry relative="1" as="geometry" />
        </mxCell>
        <mxCell id="sn5ChhuNoEnq9l8OuKxL-33" value="Select" style="rounded=1;whiteSpace=wrap;html=1;fontSize=12;glass=0;strokeWidth=1;shadow=0;" vertex="1" parent="WIyWlLk6GJQsqaUBKTNV-1">
          <mxGeometry x="284" y="485" width="80" height="30" as="geometry" />
        </mxCell>
        <mxCell id="sn5ChhuNoEnq9l8OuKxL-34" value="Update LCD Data" style="rounded=1;whiteSpace=wrap;html=1;fontSize=12;glass=0;strokeWidth=1;shadow=0;" vertex="1" parent="WIyWlLk6GJQsqaUBKTNV-1">
          <mxGeometry x="44" y="545" width="80" height="30" as="geometry" />
        </mxCell>
        <mxCell id="sn5ChhuNoEnq9l8OuKxL-35" value="Update LCD Data" style="rounded=1;whiteSpace=wrap;html=1;fontSize=12;glass=0;strokeWidth=1;shadow=0;" vertex="1" parent="WIyWlLk6GJQsqaUBKTNV-1">
          <mxGeometry x="164" y="545" width="80" height="30" as="geometry" />
        </mxCell>
        <mxCell id="sn5ChhuNoEnq9l8OuKxL-36" value="Update LCD Data" style="rounded=1;whiteSpace=wrap;html=1;fontSize=12;glass=0;strokeWidth=1;shadow=0;" vertex="1" parent="WIyWlLk6GJQsqaUBKTNV-1">
          <mxGeometry x="284" y="545" width="80" height="30" as="geometry" />
        </mxCell>
        <mxCell id="sn5ChhuNoEnq9l8OuKxL-37" value="" style="rounded=0;whiteSpace=wrap;html=1;fillColor=none;dashed=1;pointerEvents=0;" vertex="1" parent="WIyWlLk6GJQsqaUBKTNV-1">
          <mxGeometry x="34" y="460" width="340" height="120" as="geometry" />
        </mxCell>
        <mxCell id="sn5ChhuNoEnq9l8OuKxL-38" value="LCD Menu" style="text;html=1;strokeColor=none;fillColor=none;align=center;verticalAlign=middle;whiteSpace=wrap;rounded=0;dashed=1;" vertex="1" parent="WIyWlLk6GJQsqaUBKTNV-1">
          <mxGeometry x="34" y="460" width="90" height="20" as="geometry" />
        </mxCell>
      </root>
    </mxGraphModel>
  </diagram>
</mxfile>
